<?xml version="1.0" encoding="UTF-8"?>
<!DOCTYPE svg PUBLIC "-//W3C//DTD SVG 1.1//EN" "http://www.w3.org/Graphics/SVG/1.1/DTD/svg11.dtd">
<svg version="1.1" xmlns="http://www.w3.org/2000/svg" xmlns:xlink="http://www.w3.org/1999/xlink" x="0" y="0" width="672.604" height="256" viewBox="0, 0, 672.604, 256">
  <g id="Reference" display="none">
    <text transform="matrix(1, 0, -0.842, 1, 937.215, 372.953)">
      <tspan x="-267.783" y="34.515" font-family="FFFForward" font-size="105" fill="#6369FA">Tabular</tspan>
    </text>
  </g>
  <g id="Main">
    <g id="Logo">
      <g id="Text">
        <path d="M672.604,38.562 L650.352,64.99 L624.643,64.99 L570.738,129.011 L630.833,256 L604.405,256 L544.31,129.011 L620.468,38.562 L672.604,38.562 z" fill="#CACCFA" id="R"/>
        <path d="M608.334,38.562 L532.175,129.011 L592.271,256 L527.28,256 L467.185,129.011 L510.874,77.125 L549.436,77.125 L559.653,64.99 L521.091,64.99 L543.343,38.562 L608.334,38.562 z M538.007,90.698 L525.872,90.698 L515.655,102.833 L527.79,102.833 L538.007,90.698 z" fill="#CACCFA" id="A"/>
        <path d="M563.679,0 L455.051,129.011 L515.146,256 L488.718,256 L428.623,129.011 L537.251,0 L563.679,0 z" fill="#CACCFA" id="L"/>
        <path d="M454.085,38.562 L399.969,102.833 L412.103,102.833 L466.219,38.562 L492.647,38.562 L416.476,128.978 L476.584,256 L411.594,256 L351.503,129.021 L427.657,38.562 L454.085,38.562 z" fill="#CACCFA" id="U"/>
        <path d="M409.43,0 L376.96,38.562 L415.522,38.562 L339.398,128.982 L399.459,256 L334.469,256 L274.374,129.011 L383.002,0 L409.43,0 z M366.842,64.99 L354.708,64.99 L322.844,102.833 L334.978,102.833 L366.842,64.99 z" fill="#CACCFA" id="B"/>
        <path d="M338.398,38.562 L262.24,129.011 L322.335,256 L257.345,256 L197.249,129.011 L240.938,77.125 L279.5,77.125 L289.717,64.99 L251.155,64.99 L273.408,38.562 L338.398,38.562 z M268.071,90.698 L255.937,90.698 L245.72,102.833 L257.854,102.833 L268.071,90.698 z" fill="#CACCFA" id="A"/>
        <path d="M314.287,0 L292.034,26.428 L266.326,26.428 L179.951,129.011 L240.046,256 L213.618,256 L153.523,129.011 L239.898,26.428 L214.19,26.428 L236.443,0 L314.287,0 z" fill="#CACCFA" id="T"/>
      </g>
      <g id="Insignia">
        <g id="TL">
          <path d="M120.974,1.891 L139.896,43.379 L127.258,58.503 L122.552,48.183 L94.785,48.183 L32.178,123.106 L27.766,113.434 L120.974,1.891 z" fill="#6369FA" id="Face" display="none"/>
          <path d="M119.46,0 L26.142,111.676 L25.253,112.739 L25.828,113.999 L30.757,124.806 L14.216,144.602 L-0,113.434 L94.788,0 L119.46,0 z" fill="#6369FA" id="Side"/>
        </g>
        <g id="BL">
          <path d="M122,52.275 L125.694,60.375 L81.648,113.086 L95.831,144.182 L79.714,163.47 L103.019,214.565 L69.976,254.109 L28.792,163.817 L122,52.275 z" fill="#6369FA" id="Face" display="none"/>
          <path d="M120.486,50.383 L27.168,162.059 L26.279,163.122 L26.854,164.383 L68.642,256 L43.072,256 L1.026,163.817 L95.814,50.383 L120.486,50.383 z" fill="#6369FA" id="Side"/>
        </g>
        <g id="TR">
          <path d="M205.198,1.891 L246.38,92.183 L231.827,109.598 L203.816,48.184 L176.049,48.184 L115.357,120.815 L111.99,113.434 L205.198,1.891 z" fill="#6369FA" id="Face" display="none"/>
          <path d="M203.684,0 L110.366,111.676 L109.477,112.739 L110.052,113.999 L113.936,122.515 L97.395,142.31 L84.224,113.434 L179.012,0 L203.684,0 z" fill="#6369FA" id="Side"/>
        </g>
        <g id="BR">
          <path d="M203.264,52.275 L244.446,142.566 L151.24,254.109 L110.057,163.817 L203.264,52.275 z" fill="#6369FA" id="Face" display="none"/>
          <path d="M201.751,50.383 L108.432,162.059 L107.544,163.122 L108.119,164.383 L149.907,256 L124.336,256 L82.29,163.817 L177.078,50.383 L201.751,50.383 z" fill="#6369FA" id="Side"/>
        </g>
      </g>
    </g>
  </g>
</svg>
