<?xml version="1.0" encoding="UTF-8"?>
<!DOCTYPE svg PUBLIC "-//W3C//DTD SVG 1.1//EN" "http://www.w3.org/Graphics/SVG/1.1/DTD/svg11.dtd">
<svg version="1.1" xmlns="http://www.w3.org/2000/svg" xmlns:xlink="http://www.w3.org/1999/xlink" x="0" y="0" width="1280" height="640" viewBox="0, 0, 1280, 640">
  <g id="Background">
    <rect x="0" y="0" width="1280" height="640" fill="#000000" fill-opacity="0"/>
  </g>
  <g id="Main">
    <g id="Logo">
      <g id="TR">
        <g id="Side">
          <path d="M253.494,27.5 L322.603,27.5 L103.646,289.529 L201.851,504.837 L132.742,504.837 L34.537,289.529 L253.494,27.5 z" fill="#CACCFA"/>
          <path d="M253.494,27.5 L322.603,27.5 L103.646,289.529 L201.851,504.837 L132.742,504.837 L34.537,289.529 L253.494,27.5 z" fill-opacity="0" stroke="#FFFFFF" stroke-width="1"/>
        </g>
        <g id="Face">
          <path d="M103.646,289.529 L322.603,27.5 L420.806,242.808 L201.851,504.837 L103.646,289.529 z" fill="#6369FA"/>
          <path d="M103.646,289.529 L322.603,27.5 L420.806,242.808 L201.851,504.837 L103.646,289.529 z" fill-opacity="0" stroke="#FFFFFF" stroke-width="1"/>
        </g>
      </g>
      <g id="BL">
        <g id="Side">
          <path d="M255.824,142.014 L324.933,142.014 L105.978,404.043 L204.181,619.351 L135.072,619.351 L36.869,404.043 L255.824,142.014 z" fill="#CACCFA"/>
          <path d="M255.824,142.014 L324.933,142.014 L105.978,404.043 L204.181,619.351 L135.072,619.351 L36.869,404.043 L255.824,142.014 z" fill-opacity="0" stroke="#FFFFFF" stroke-width="1"/>
        </g>
        <g id="Face">
          <path d="M105.978,404.043 L324.933,142.014 L423.138,357.322 L204.181,619.351 L105.978,404.043 z" fill="#6369FA"/>
          <path d="M105.978,404.043 L324.933,142.014 L423.138,357.322 L204.181,619.351 L105.978,404.043 z" fill-opacity="0" stroke="#FFFFFF" stroke-width="1"/>
        </g>
      </g>
      <g id="TR">
        <g id="Side">
          <path d="M444.92,27.5 L514.029,27.5 L295.075,289.529 L393.278,504.837 L324.169,504.837 L225.966,289.529 L444.92,27.5 z" fill="#CACCFA"/>
          <path d="M444.92,27.5 L514.029,27.5 L295.075,289.529 L393.278,504.837 L324.169,504.837 L225.966,289.529 L444.92,27.5 z" fill-opacity="0" stroke="#FFFFFF" stroke-width="1"/>
        </g>
        <g id="Face">
          <path d="M295.075,289.529 L514.029,27.5 L612.234,242.808 L393.278,504.837 L295.075,289.529 z" fill="#6369FA"/>
          <path d="M295.075,289.529 L514.029,27.5 L612.234,242.808 L393.278,504.837 L295.075,289.529 z" fill-opacity="0" stroke="#FFFFFF" stroke-width="1"/>
        </g>
      </g>
      <g id="BR">
        <g id="Side">
          <path d="M440.528,142.014 L509.637,142.014 L290.68,404.043 L388.885,619.351 L319.776,619.351 L221.571,404.043 L440.528,142.014 z" fill="#CACCFA"/>
          <path d="M440.528,142.014 L509.637,142.014 L290.68,404.043 L388.885,619.351 L319.776,619.351 L221.571,404.043 L440.528,142.014 z" fill-opacity="0" stroke="#FFFFFF" stroke-width="1"/>
        </g>
        <g id="Face">
          <path d="M290.68,404.043 L509.637,142.014 L607.84,357.322 L388.885,619.351 L290.68,404.043 z" fill="#6369FA"/>
          <path d="M290.68,404.043 L509.637,142.014 L607.84,357.322 L388.885,619.351 L290.68,404.043 z" fill-opacity="0" stroke="#FFFFFF" stroke-width="1"/>
        </g>
      </g>
    </g>
    <g id="Text">
      <g>
        <path d="M1228.661,296.102 L1228.661,317.803 Q1227.125,317.594 1225.891,317.489 Q1224.657,317.384 1223.394,317.384 Q1213.609,317.384 1207.705,322.928 Q1201.801,328.472 1201.801,340.096 L1201.801,378.386 L1178.271,378.386 L1178.271,297.245 L1200.689,297.245 L1200.689,308.04 C1202.756,304.785 1205.926,302.483 1209.159,300.519 Q1217.137,296.102 1228.661,296.102 z M1133.497,344.442 L1133.497,352.721 Q1131.412,358.25 1126.696,361 Q1121.98,363.751 1116.053,363.751 Q1109.916,363.751 1106.409,361.091 Q1102.902,358.431 1102.902,354.02 Q1102.902,349.822 1105.982,347.132 Q1109.062,344.442 1117.405,344.442 L1133.497,344.442 z M1117.933,296.102 Q1108.28,296.102 1098.947,298.606 Q1089.615,301.11 1082.921,305.909 L1091.323,322.284 Q1095.761,318.812 1102.038,316.805 Q1108.315,314.798 1114.716,314.798 Q1124.285,314.798 1128.891,318.966 Q1133.497,323.134 1133.497,330.716 L1133.497,330.73 L1114.797,330.73 Q1102.431,330.73 1094.742,333.823 Q1087.053,336.917 1083.527,342.362 Q1080.001,347.807 1080.001,354.981 Q1080.001,361.978 1083.607,367.558 Q1087.213,373.138 1094,376.335 Q1100.788,379.531 1110.255,379.531 Q1120.964,379.531 1127.755,375.461 C1130.586,373.595 1133.337,371.384 1134.909,368.291 L1134.909,378.386 L1157.027,378.386 L1157.027,332.038 Q1157.027,313.559 1146.794,304.831 Q1136.561,296.102 1117.933,296.102 z M1063.438,378.386 L1063.438,266.469 L1039.908,266.469 L1039.908,378.386 z M959.311,297.245 L935.781,297.245 L935.781,343.07 Q935.781,355.584 940.216,363.696 Q944.65,371.808 952.522,375.67 Q960.395,379.531 970.565,379.531 Q979.916,379.531 987.803,375.249 C990.73,373.514 993.535,371.572 995.671,368.87 L995.671,378.386 L1018.089,378.386 L1018.089,297.245 L994.559,297.245 L994.559,337.376 Q994.559,344.774 992.127,349.653 Q989.694,354.531 985.462,356.888 Q981.229,359.245 975.754,359.245 Q967.956,359.245 963.633,354.502 Q959.311,349.759 959.311,339.554 L959.311,297.245 z M876.044,315.366 Q881.908,315.366 886.563,318.041 Q891.217,320.716 893.983,325.717 Q896.748,330.718 896.748,337.786 Q896.748,344.703 893.983,349.809 Q891.217,354.915 886.563,357.59 Q881.908,360.265 876.044,360.265 Q870.181,360.265 865.525,357.59 Q860.869,354.915 858.104,349.809 Q855.338,344.703 855.338,337.786 Q855.338,330.718 858.104,325.717 Q860.869,320.716 865.525,318.041 Q870.181,315.366 876.044,315.366 L876.044,315.366 z M882.93,296.182 L880.093,296.102 C873.839,296.278 867.638,297.352 862.189,300.612 C859.845,302.108 857.471,303.684 855.76,305.92 L855.76,266.469 L832.23,266.469 L832.23,378.386 L854.647,378.386 L854.647,368.833 C856.721,371.25 858.95,373.528 861.797,375.051 Q869.509,379.532 880.093,379.532 Q891.59,379.532 900.731,374.373 Q909.873,369.214 915.211,359.863 Q920.549,350.513 920.549,337.786 Q920.549,325.06 915.211,315.709 Q909.873,306.359 900.731,301.231 C895.156,298.345 889.252,296.455 882.93,296.182 z M787.456,344.442 L787.456,352.721 Q785.37,358.25 780.654,361 Q775.939,363.751 770.011,363.751 Q763.874,363.751 760.367,361.091 Q756.861,358.431 756.861,354.02 Q756.861,349.822 759.941,347.132 Q763.021,344.442 771.364,344.442 L787.456,344.442 z M771.892,296.102 Q762.239,296.102 752.906,298.606 Q743.573,301.11 736.88,305.909 L745.282,322.284 Q749.72,318.812 755.997,316.805 Q762.274,314.798 768.675,314.798 Q778.243,314.798 782.85,318.966 Q787.456,323.134 787.456,330.716 L787.456,330.73 L768.755,330.73 Q756.389,330.73 748.7,333.823 Q741.011,336.917 737.486,342.362 Q733.96,347.807 733.96,354.981 Q733.96,361.978 737.566,367.558 Q741.172,373.138 747.959,376.335 Q754.747,379.531 764.214,379.531 Q774.923,379.531 781.714,375.461 C784.545,373.595 787.296,371.384 788.868,368.291 L788.868,378.386 L810.986,378.386 L810.986,332.038 Q810.986,313.559 800.753,304.831 Q790.52,296.102 771.892,296.102 z M698.005,378.386 L698.005,292.76 L731.747,292.76 L731.747,272.803 L639.77,272.803 L639.77,292.76 L673.511,292.76 L673.511,378.386 z" fill="#CACCFA"/>
        <path d="M1228.661,296.102 L1228.661,317.803 Q1227.125,317.594 1225.891,317.489 Q1224.657,317.384 1223.394,317.384 Q1213.609,317.384 1207.705,322.928 Q1201.801,328.472 1201.801,340.096 L1201.801,378.386 L1178.271,378.386 L1178.271,297.245 L1200.689,297.245 L1200.689,308.04 C1202.756,304.785 1205.926,302.483 1209.159,300.519 Q1217.137,296.102 1228.661,296.102 z M1133.497,344.442 L1133.497,352.721 Q1131.412,358.25 1126.696,361 Q1121.98,363.751 1116.053,363.751 Q1109.916,363.751 1106.409,361.091 Q1102.902,358.431 1102.902,354.02 Q1102.902,349.822 1105.982,347.132 Q1109.062,344.442 1117.405,344.442 L1133.497,344.442 z M1117.933,296.102 Q1108.28,296.102 1098.947,298.606 Q1089.615,301.11 1082.921,305.909 L1091.323,322.284 Q1095.761,318.812 1102.038,316.805 Q1108.315,314.798 1114.716,314.798 Q1124.285,314.798 1128.891,318.966 Q1133.497,323.134 1133.497,330.716 L1133.497,330.73 L1114.797,330.73 Q1102.431,330.73 1094.742,333.823 Q1087.053,336.917 1083.527,342.362 Q1080.001,347.807 1080.001,354.981 Q1080.001,361.978 1083.607,367.558 Q1087.213,373.138 1094,376.335 Q1100.788,379.531 1110.255,379.531 Q1120.964,379.531 1127.755,375.461 C1130.586,373.595 1133.337,371.384 1134.909,368.291 L1134.909,378.386 L1157.027,378.386 L1157.027,332.038 Q1157.027,313.559 1146.794,304.831 Q1136.561,296.102 1117.933,296.102 z M1063.438,378.386 L1063.438,266.469 L1039.908,266.469 L1039.908,378.386 z M959.311,297.245 L935.781,297.245 L935.781,343.07 Q935.781,355.584 940.216,363.696 Q944.65,371.808 952.522,375.67 Q960.395,379.531 970.565,379.531 Q979.916,379.531 987.803,375.249 C990.73,373.514 993.535,371.572 995.671,368.87 L995.671,378.386 L1018.089,378.386 L1018.089,297.245 L994.559,297.245 L994.559,337.376 Q994.559,344.774 992.127,349.653 Q989.694,354.531 985.462,356.888 Q981.229,359.245 975.754,359.245 Q967.956,359.245 963.633,354.502 Q959.311,349.759 959.311,339.554 L959.311,297.245 z M876.044,315.366 Q881.908,315.366 886.563,318.041 Q891.217,320.716 893.983,325.717 Q896.748,330.718 896.748,337.786 Q896.748,344.703 893.983,349.809 Q891.217,354.915 886.563,357.59 Q881.908,360.265 876.044,360.265 Q870.181,360.265 865.525,357.59 Q860.869,354.915 858.104,349.809 Q855.338,344.703 855.338,337.786 Q855.338,330.718 858.104,325.717 Q860.869,320.716 865.525,318.041 Q870.181,315.366 876.044,315.366 L876.044,315.366 z M882.93,296.182 L880.093,296.102 C873.839,296.278 867.638,297.352 862.189,300.612 C859.845,302.108 857.471,303.684 855.76,305.92 L855.76,266.469 L832.23,266.469 L832.23,378.386 L854.647,378.386 L854.647,368.833 C856.721,371.25 858.95,373.528 861.797,375.051 Q869.509,379.532 880.093,379.532 Q891.59,379.532 900.731,374.373 Q909.873,369.214 915.211,359.863 Q920.549,350.513 920.549,337.786 Q920.549,325.06 915.211,315.709 Q909.873,306.359 900.731,301.231 C895.156,298.345 889.252,296.455 882.93,296.182 z M787.456,344.442 L787.456,352.721 Q785.37,358.25 780.654,361 Q775.939,363.751 770.011,363.751 Q763.874,363.751 760.367,361.091 Q756.861,358.431 756.861,354.02 Q756.861,349.822 759.941,347.132 Q763.021,344.442 771.364,344.442 L787.456,344.442 z M771.892,296.102 Q762.239,296.102 752.906,298.606 Q743.573,301.11 736.88,305.909 L745.282,322.284 Q749.72,318.812 755.997,316.805 Q762.274,314.798 768.675,314.798 Q778.243,314.798 782.85,318.966 Q787.456,323.134 787.456,330.716 L787.456,330.73 L768.755,330.73 Q756.389,330.73 748.7,333.823 Q741.011,336.917 737.486,342.362 Q733.96,347.807 733.96,354.981 Q733.96,361.978 737.566,367.558 Q741.172,373.138 747.959,376.335 Q754.747,379.531 764.214,379.531 Q774.923,379.531 781.714,375.461 C784.545,373.595 787.296,371.384 788.868,368.291 L788.868,378.386 L810.986,378.386 L810.986,332.038 Q810.986,313.559 800.753,304.831 Q790.52,296.102 771.892,296.102 z M698.005,378.386 L698.005,292.76 L731.747,292.76 L731.747,272.803 L639.77,272.803 L639.77,292.76 L673.511,292.76 L673.511,378.386 z" fill-opacity="0" stroke="#FFFFFF" stroke-width="1"/>
      </g>
      <g>
        <path d="M1234.661,290.102 L1234.661,311.803 Q1233.125,311.594 1231.891,311.489 Q1230.657,311.384 1229.394,311.384 Q1219.609,311.384 1213.705,316.928 Q1207.801,322.472 1207.801,334.096 L1207.801,372.386 L1184.271,372.386 L1184.271,291.245 L1206.689,291.245 L1206.689,302.04 C1208.756,298.785 1211.926,296.483 1215.159,294.519 Q1223.136,290.102 1234.661,290.102 z M1139.497,338.442 L1139.497,346.721 Q1137.412,352.25 1132.696,355 Q1127.98,357.751 1122.053,357.751 Q1115.916,357.751 1112.409,355.091 Q1108.902,352.431 1108.902,348.02 Q1108.902,343.822 1111.982,341.132 Q1115.062,338.442 1123.405,338.442 L1139.497,338.442 z M1123.933,290.102 Q1114.28,290.102 1104.947,292.606 Q1095.615,295.11 1088.921,299.909 L1097.323,316.284 Q1101.761,312.812 1108.038,310.805 Q1114.315,308.798 1120.716,308.798 Q1130.285,308.798 1134.891,312.966 Q1139.497,317.134 1139.497,324.716 L1139.497,324.73 L1120.797,324.73 Q1108.431,324.73 1100.742,327.823 Q1093.053,330.917 1089.527,336.362 Q1086.001,341.807 1086.001,348.981 Q1086.001,355.978 1089.607,361.558 Q1093.213,367.138 1100,370.335 Q1106.788,373.531 1116.255,373.531 Q1126.964,373.531 1133.755,369.461 C1136.586,367.595 1139.337,365.384 1140.909,362.291 L1140.909,372.386 L1163.027,372.386 L1163.027,326.038 Q1163.027,307.559 1152.794,298.831 Q1142.561,290.102 1123.933,290.102 z M1069.438,372.386 L1069.438,260.469 L1045.908,260.469 L1045.908,372.386 z M965.311,291.245 L941.781,291.245 L941.781,337.07 Q941.781,349.584 946.216,357.696 Q950.65,365.808 958.522,369.67 Q966.395,373.531 976.565,373.531 Q985.916,373.531 993.803,369.249 C996.73,367.514 999.535,365.572 1001.671,362.87 L1001.671,372.386 L1024.089,372.386 L1024.089,291.245 L1000.559,291.245 L1000.559,331.376 Q1000.559,338.774 998.127,343.653 Q995.694,348.531 991.462,350.888 Q987.229,353.245 981.754,353.245 Q973.956,353.245 969.633,348.502 Q965.311,343.759 965.311,333.554 L965.311,291.245 z M882.044,309.366 Q887.908,309.366 892.563,312.041 Q897.217,314.716 899.983,319.717 Q902.748,324.718 902.748,331.786 Q902.748,338.703 899.983,343.809 Q897.217,348.915 892.563,351.59 Q887.908,354.265 882.044,354.265 Q876.181,354.265 871.525,351.59 Q866.869,348.915 864.104,343.809 Q861.338,338.703 861.338,331.786 Q861.338,324.718 864.104,319.717 Q866.869,314.716 871.525,312.041 Q876.181,309.366 882.044,309.366 L882.044,309.366 z M888.93,290.182 L886.093,290.102 C879.839,290.278 873.638,291.352 868.189,294.612 C865.845,296.108 863.471,297.684 861.76,299.92 L861.76,260.468 L838.23,260.468 L838.23,372.386 L860.647,372.386 L860.647,362.833 C862.721,365.25 864.95,367.528 867.797,369.051 Q875.509,373.531 886.093,373.531 Q897.59,373.531 906.731,368.373 Q915.873,363.214 921.211,353.863 Q926.549,344.513 926.549,331.786 Q926.549,319.06 921.211,309.709 Q915.873,300.359 906.731,295.231 C901.156,292.345 895.252,290.455 888.93,290.182 z M793.456,338.442 L793.456,346.721 Q791.37,352.25 786.654,355 Q781.939,357.751 776.011,357.751 Q769.874,357.751 766.367,355.091 Q762.861,352.431 762.861,348.02 Q762.861,343.822 765.941,341.132 Q769.021,338.442 777.364,338.442 L793.456,338.442 z M777.892,290.102 Q768.239,290.102 758.906,292.606 Q749.573,295.11 742.88,299.909 L751.282,316.284 Q755.72,312.812 761.997,310.805 Q768.274,308.798 774.675,308.798 Q784.243,308.798 788.85,312.966 Q793.456,317.134 793.456,324.716 L793.456,324.73 L774.755,324.73 Q762.389,324.73 754.7,327.823 Q747.011,330.917 743.486,336.362 Q739.96,341.807 739.96,348.981 Q739.96,355.978 743.566,361.558 Q747.172,367.138 753.959,370.335 Q760.747,373.531 770.214,373.531 Q780.923,373.531 787.714,369.461 C790.545,367.595 793.296,365.384 794.868,362.291 L794.868,372.386 L816.986,372.386 L816.986,326.038 Q816.986,307.559 806.753,298.831 Q796.52,290.102 777.892,290.102 z M704.005,372.386 L704.005,286.76 L737.747,286.76 L737.747,266.803 L645.77,266.803 L645.77,286.76 L679.511,286.76 L679.511,372.386 z" fill="#6369FA"/>
        <path d="M1234.661,290.102 L1234.661,311.803 Q1233.125,311.594 1231.891,311.489 Q1230.657,311.384 1229.394,311.384 Q1219.609,311.384 1213.705,316.928 Q1207.801,322.472 1207.801,334.096 L1207.801,372.386 L1184.271,372.386 L1184.271,291.245 L1206.689,291.245 L1206.689,302.04 C1208.756,298.785 1211.926,296.483 1215.159,294.519 Q1223.136,290.102 1234.661,290.102 z M1139.497,338.442 L1139.497,346.721 Q1137.412,352.25 1132.696,355 Q1127.98,357.751 1122.053,357.751 Q1115.916,357.751 1112.409,355.091 Q1108.902,352.431 1108.902,348.02 Q1108.902,343.822 1111.982,341.132 Q1115.062,338.442 1123.405,338.442 L1139.497,338.442 z M1123.933,290.102 Q1114.28,290.102 1104.947,292.606 Q1095.615,295.11 1088.921,299.909 L1097.323,316.284 Q1101.761,312.812 1108.038,310.805 Q1114.315,308.798 1120.716,308.798 Q1130.285,308.798 1134.891,312.966 Q1139.497,317.134 1139.497,324.716 L1139.497,324.73 L1120.797,324.73 Q1108.431,324.73 1100.742,327.823 Q1093.053,330.917 1089.527,336.362 Q1086.001,341.807 1086.001,348.981 Q1086.001,355.978 1089.607,361.558 Q1093.213,367.138 1100,370.335 Q1106.788,373.531 1116.255,373.531 Q1126.964,373.531 1133.755,369.461 C1136.586,367.595 1139.337,365.384 1140.909,362.291 L1140.909,372.386 L1163.027,372.386 L1163.027,326.038 Q1163.027,307.559 1152.794,298.831 Q1142.561,290.102 1123.933,290.102 z M1069.438,372.386 L1069.438,260.469 L1045.908,260.469 L1045.908,372.386 z M965.311,291.245 L941.781,291.245 L941.781,337.07 Q941.781,349.584 946.216,357.696 Q950.65,365.808 958.522,369.67 Q966.395,373.531 976.565,373.531 Q985.916,373.531 993.803,369.249 C996.73,367.514 999.535,365.572 1001.671,362.87 L1001.671,372.386 L1024.089,372.386 L1024.089,291.245 L1000.559,291.245 L1000.559,331.376 Q1000.559,338.774 998.127,343.653 Q995.694,348.531 991.462,350.888 Q987.229,353.245 981.754,353.245 Q973.956,353.245 969.633,348.502 Q965.311,343.759 965.311,333.554 L965.311,291.245 z M882.044,309.366 Q887.908,309.366 892.563,312.041 Q897.217,314.716 899.983,319.717 Q902.748,324.718 902.748,331.786 Q902.748,338.703 899.983,343.809 Q897.217,348.915 892.563,351.59 Q887.908,354.265 882.044,354.265 Q876.181,354.265 871.525,351.59 Q866.869,348.915 864.104,343.809 Q861.338,338.703 861.338,331.786 Q861.338,324.718 864.104,319.717 Q866.869,314.716 871.525,312.041 Q876.181,309.366 882.044,309.366 L882.044,309.366 z M888.93,290.182 L886.093,290.102 C879.839,290.278 873.638,291.352 868.189,294.612 C865.845,296.108 863.471,297.684 861.76,299.92 L861.76,260.468 L838.23,260.468 L838.23,372.386 L860.647,372.386 L860.647,362.833 C862.721,365.25 864.95,367.528 867.797,369.051 Q875.509,373.531 886.093,373.531 Q897.59,373.531 906.731,368.373 Q915.873,363.214 921.211,353.863 Q926.549,344.513 926.549,331.786 Q926.549,319.06 921.211,309.709 Q915.873,300.359 906.731,295.231 C901.156,292.345 895.252,290.455 888.93,290.182 z M793.456,338.442 L793.456,346.721 Q791.37,352.25 786.654,355 Q781.939,357.751 776.011,357.751 Q769.874,357.751 766.367,355.091 Q762.861,352.431 762.861,348.02 Q762.861,343.822 765.941,341.132 Q769.021,338.442 777.364,338.442 L793.456,338.442 z M777.892,290.102 Q768.239,290.102 758.906,292.606 Q749.573,295.11 742.88,299.909 L751.282,316.284 Q755.72,312.812 761.997,310.805 Q768.274,308.798 774.675,308.798 Q784.243,308.798 788.85,312.966 Q793.456,317.134 793.456,324.716 L793.456,324.73 L774.755,324.73 Q762.389,324.73 754.7,327.823 Q747.011,330.917 743.486,336.362 Q739.96,341.807 739.96,348.981 Q739.96,355.978 743.566,361.558 Q747.172,367.138 753.959,370.335 Q760.747,373.531 770.214,373.531 Q780.923,373.531 787.714,369.461 C790.545,367.595 793.296,365.384 794.868,362.291 L794.868,372.386 L816.986,372.386 L816.986,326.038 Q816.986,307.559 806.753,298.831 Q796.52,290.102 777.892,290.102 z M704.005,372.386 L704.005,286.76 L737.747,286.76 L737.747,266.803 L645.77,266.803 L645.77,286.76 L679.511,286.76 L679.511,372.386 z" fill-opacity="0" stroke="#FFFFFF" stroke-width="1"/>
      </g>
    </g>
  </g>
</svg>
